<mxfile host="app.diagrams.net" modified="2024-06-26T15:29:41.240Z" agent="Mozilla/5.0 (Windows NT 10.0; Win64; x64; rv:127.0) Gecko/20100101 Firefox/127.0" version="24.6.3" etag="SlXLwIZXWSwv8CO6V_hO" type="github">
  <diagram name="Page-1" id="QfsWnOChVYV5-d25s6B1">
    <mxGraphModel>
      <root>
        <mxCell id="0" />
        <mxCell id="1" parent="0" />
      </root>
    </mxGraphModel>
  </diagram>
</mxfile>
